<?xml version="1.0" encoding="utf-8"?>
<!-- Generator: Adobe Illustrator 26.1.0, SVG Export Plug-In . SVG Version: 6.00 Build 0)  -->
<svg version="1.1" xmlns="http://www.w3.org/2000/svg" xmlns:xlink="http://www.w3.org/1999/xlink" x="0px" y="0px"
	 viewBox="0 0 500 500" style="enable-background:new 0 0 500 500;" xml:space="preserve">
<style type="text/css">
	.st0{fill:#1D365C;}
	.st1{fill:#FFFFFF;}
	.st2{fill:#FF5F13;}
	.st3{fill:#E07019;}
	.st4{opacity:0.5;fill:#1D365C;}
	.st5{fill:#E1FAFD;}
	.st6{fill:#F6F5F1;}
	.st7{font-family:'Poppins-Black';}
	.st8{font-size:69px;}
</style>
<g id="OBJECTS">
	<g>
		<g>
			<rect x="276.48" y="159.71" class="st0" width="58.85" height="149.31"/>
			<rect x="283.32" y="147.28" class="st0" width="45.59" height="14.98"/>
			<rect x="276.66" y="143.26" class="st0" width="59.27" height="8.12"/>
			<g>
				<rect x="287.21" y="167.62" class="st1" width="4.06" height="120.58"/>
				<rect x="297.77" y="167.62" class="st1" width="4.06" height="120.58"/>
				<rect x="309.94" y="167.62" class="st1" width="3.25" height="120.58"/>
				<rect x="320.5" y="167.62" class="st1" width="3.25" height="120.58"/>
			</g>
		</g>
		<g>
			<polygon class="st2" points="276.82,308.73 217.55,308.73 217.55,157.79 276.82,134.67 			"/>
			<g>
				<path class="st1" d="M233.95,184.12v-17.4c0-1.79-1.57-3.23-3.5-3.23c-1.93,0-3.5,1.45-3.5,3.23v17.4H233.95z"/>
				<path class="st1" d="M250.6,184.12v-17.4c0-1.79-1.57-3.23-3.5-3.23c-1.93,0-3.5,1.45-3.5,3.23v17.4H250.6z"/>
				<path class="st1" d="M267.26,184.12v-17.4c0-1.79-1.57-3.23-3.5-3.23c-1.93,0-3.5,1.45-3.5,3.23v17.4H267.26z"/>
				<path class="st1" d="M233.95,218.18v-17.4c0-1.79-1.57-3.23-3.5-3.23c-1.93,0-3.5,1.45-3.5,3.23v17.4H233.95z"/>
				<path class="st1" d="M250.6,218.18v-17.4c0-1.79-1.57-3.23-3.5-3.23c-1.93,0-3.5,1.45-3.5,3.23v17.4H250.6z"/>
				<path class="st1" d="M267.26,218.18v-17.4c0-1.79-1.57-3.23-3.5-3.23c-1.93,0-3.5,1.45-3.5,3.23v17.4H267.26z"/>
				<path class="st1" d="M233.95,252.23v-17.4c0-1.79-1.57-3.24-3.5-3.24c-1.93,0-3.5,1.45-3.5,3.24v17.4H233.95z"/>
				<path class="st1" d="M250.6,252.23v-17.4c0-1.79-1.57-3.24-3.5-3.24c-1.93,0-3.5,1.45-3.5,3.24v17.4H250.6z"/>
				<path class="st1" d="M267.26,252.23v-17.4c0-1.79-1.57-3.24-3.5-3.24c-1.93,0-3.5,1.45-3.5,3.24v17.4H267.26z"/>
				<path class="st1" d="M233.95,286.28v-17.4c0-1.79-1.57-3.24-3.5-3.24c-1.93,0-3.5,1.45-3.5,3.24v17.4H233.95z"/>
				<path class="st1" d="M250.6,286.28v-17.4c0-1.79-1.57-3.24-3.5-3.24c-1.93,0-3.5,1.45-3.5,3.24v17.4H250.6z"/>
				<path class="st1" d="M267.26,286.28v-17.4c0-1.79-1.57-3.24-3.5-3.24c-1.93,0-3.5,1.45-3.5,3.24v17.4H267.26z"/>
			</g>
		</g>
		<g>
			<g>
				<g>
					<path class="st3" d="M169.64,307.34h2.53v-4.37h15.62l-4.42,4.37h4.6l3.54-3.5v3.5h5.61V85.41h-0.35v-3.02h-30.13v3.02h-0.09
						v219.4C167.64,305.57,168.68,306.41,169.64,307.34z M191.51,299.05l-17.96-17.76h17.96V299.05z M191.51,277.43h-17.01
						l17.01-16.82V277.43z M191.51,255.76h-0.07l-18.01-17.81h18.08V255.76z M191.51,234.09h-16.89l16.89-16.71V234.09z
						 M191.51,212.42h-0.18l-18.01-17.81h18.19V212.42z M191.51,190.75h-16.78l16.78-16.6V190.75z M191.51,169.08h-0.3l-18.01-17.81
						h18.3V169.08z M191.51,147.41h-16.67l16.67-16.49V147.41z M191.51,125.74h-0.41l-18-17.81h18.41V125.74z M191.51,104.06h-16.56
						l16.56-16.38V104.06z M172.17,86.25h16.19l-16.19,16.01V86.25z M172.17,111.55l14.34,14.18h-14.34V111.55z M172.17,129.6h16.08
						l-16.08,15.91V129.6z M172.17,154.79l14.45,14.29h-14.45V154.79z M172.17,172.94h15.97l-15.97,15.8V172.94z M172.17,198.02
						l14.56,14.4h-14.56V198.02z M172.17,216.28h15.86l-15.86,15.68V216.28z M172.17,241.25l14.68,14.51h-14.68V241.25z
						 M172.17,259.62h15.74l-15.74,15.56V259.62z M172.17,284.47l14.8,14.63h-14.8V284.47z"/>
				</g>
				<g>
					<path class="st0" d="M169.64,307.34h2.53v-4.37h15.62l-4.42,4.37h4.6l3.54-3.5v3.5h5.61V85.41h-0.35v-3.02h-30.13v3.02h-0.09
						v219.4C167.64,305.57,168.68,306.41,169.64,307.34z M191.51,299.05l-17.96-17.76h17.96V299.05z M191.51,277.43h-17.01
						l17.01-16.82V277.43z M191.51,255.76h-0.07l-18.01-17.81h18.08V255.76z M191.51,234.09h-16.89l16.89-16.71V234.09z
						 M191.51,212.42h-0.18l-18.01-17.81h18.19V212.42z M191.51,190.75h-16.78l16.78-16.6V190.75z M191.51,169.08h-0.3l-18.01-17.81
						h18.3V169.08z M191.51,147.41h-16.67l16.67-16.49V147.41z M191.51,125.74h-0.41l-18-17.81h18.41V125.74z M191.51,104.06h-16.56
						l16.56-16.38V104.06z M172.17,86.25h16.19l-16.19,16.01V86.25z M172.17,111.55l14.34,14.18h-14.34V111.55z M172.17,129.6h16.08
						l-16.08,15.91V129.6z M172.17,154.79l14.45,14.29h-14.45V154.79z M172.17,172.94h15.97l-15.97,15.8V172.94z M172.17,198.02
						l14.56,14.4h-14.56V198.02z M172.17,216.28h15.86l-15.86,15.68V216.28z M172.17,241.25l14.68,14.51h-14.68V241.25z
						 M172.17,259.62h15.74l-15.74,15.56V259.62z M172.17,284.47l14.8,14.63h-14.8V284.47z"/>
				</g>
			</g>
			<g>
				<g>
					<path class="st0" d="M171.21,84.1c1.9,3.41,3.79,6.82,5.69,10.22c0.44,0.79-0.76,1.52-1.2,0.73c-1.9-3.41-3.79-6.82-5.69-10.22
						C169.57,84.04,170.77,83.3,171.21,84.1L171.21,84.1z"/>
				</g>
				<g>
					<path class="st0" d="M329.41,71.1c-1.56,3.58-3.12,7.15-4.68,10.72c-0.36,0.83-1.67,0.32-1.31-0.51
						c1.56-3.57,3.12-7.15,4.68-10.72C328.47,69.76,329.78,70.27,329.41,71.1L329.41,71.1z"/>
				</g>
				<g>
					<path class="st0" d="M350.31,99.68c-1.56,3.57-3.12,7.15-4.68,10.72c-0.36,0.83-1.67,0.32-1.31-0.51
						c1.56-3.58,3.12-7.15,4.67-10.73C349.36,98.34,350.67,98.85,350.31,99.68L350.31,99.68z"/>
				</g>
				<g>
					<g>
						<path class="st0" d="M234.26,99.75l16.12-1.66l0.18,0.17l0.14-0.2l21.47-2.21l0.28,0.25l0.21-0.31l21.39-2.2l0.01,0.01
							l0.01-0.01l25.24-2.59l6.87-15.25l-25.2,2.27l-0.12-0.12l-0.08,0.14l-19.61,1.76l0,0l0,0l-21.72,1.96l-0.06-0.05l-0.04,0.06
							l-26.73,2.41L234.26,99.75z M257.67,84.27l-7.44,11.11l-10.18-9.53L257.67,84.27z M279.48,82.31l-7.38,10.96l-10.3-9.36
							L279.48,82.31z M299.36,80.52l-5.8,10.17l-9.96-8.75L299.36,80.52z M316.32,79l-5.46,9.11l-7.77-7.92L316.32,79z
							 M317.72,88.82l-5.45,0.56l6.01-10.03l-0.76-0.46l4.87-0.44L317.72,88.82z M295.49,91.1l5.77-10.12l8.49,8.65L295.49,91.1z
							 M274.35,93.27l7.18-10.65l10.11,8.88L274.35,93.27z M252.39,95.53l7.35-10.97l10.1,9.18L252.39,95.53z M236.34,97.18
							l-1.15-10.88l2.66-0.24l-0.16,0.17l10.42,9.75L236.34,97.18z"/>
					</g>
					<g>
						<path class="st0" d="M235.98,94.45l-1.17,2.05l-10.31-9.05l10.63-0.96l-0.26-2.41l-12.88,1.16l0,0l-22.47,2.02l-0.06-0.05
							l-0.04,0.06l-27.66,2.49l1.7,16.1l16.67-1.71l0.19,0.18l0.14-0.21l22.21-2.28l0.29,0.26l0.21-0.32l22.13-2.27l0.01,0.01
							l0.01-0.01l1.18-0.12L235.98,94.45z M175.61,103.21l-1.19-11.26l2.75-0.25l-0.16,0.17l10.78,10.08L175.61,103.21z
							 M189.98,101.36l-10.54-9.86l18.24-1.64L189.98,101.36z M192.21,101.5l7.6-11.35l10.45,9.5L192.21,101.5z M212.61,99.16
							l-10.66-9.69l18.29-1.65L212.61,99.16z M214.94,99.17l7.43-11.02l10.46,9.18L214.94,99.17z"/>
					</g>
				</g>
				<g>
					<polygon class="st0" points="325.75,75.6 347.14,105.81 343.7,114.18 319.66,90.14 325.59,75.7 					"/>
					<g>
						<polygon class="st4" points="345.19,110.58 345.19,110.57 345.19,110.58 						"/>
					</g>
				</g>
				
					<rect x="345.49" y="110.98" transform="matrix(0.9636 -0.2675 0.2675 0.9636 -20.4189 97.242)" class="st0" width="2.47" height="25.19"/>
				<g>
					<g>
						<path class="st0" d="M165.54,93.6c-2.15,3.98-0.68,8.95,3.3,11.1c3.98,2.15,8.95,0.68,11.1-3.3c2.15-3.98,0.68-8.95-3.3-11.1
							C172.67,88.14,167.7,89.62,165.54,93.6z"/>
						<path class="st5" d="M166.7,94.22c-1.81,3.34-0.57,7.51,2.77,9.32c3.34,1.81,7.51,0.57,9.32-2.77
							c1.81-3.34,0.57-7.51-2.77-9.32C172.68,89.65,168.51,90.89,166.7,94.22z"/>
						<path class="st0" d="M168.49,95.19c-1.27,2.35-0.4,5.28,1.95,6.55c2.35,1.27,5.28,0.4,6.56-1.95c1.27-2.35,0.4-5.28-1.95-6.56
							C172.7,91.97,169.76,92.84,168.49,95.19z"/>
					</g>
				</g>
				<g>
					<g>
						<path class="st0" d="M315.82,80.46c-1.72,4.18,0.28,8.97,4.46,10.69c4.18,1.72,8.97-0.28,10.69-4.46
							c1.72-4.18-0.28-8.97-4.46-10.69C322.33,74.27,317.54,76.27,315.82,80.46z"/>
						<path class="st5" d="M317.04,80.96c-1.44,3.51,0.23,7.53,3.75,8.97c3.51,1.44,7.52-0.23,8.97-3.75
							c1.44-3.51-0.23-7.52-3.74-8.97C322.5,75.77,318.48,77.45,317.04,80.96z"/>
						<path class="st0" d="M318.92,81.73c-1.02,2.47,0.16,5.3,2.63,6.31c2.47,1.01,5.3-0.16,6.31-2.63c1.02-2.47-0.17-5.3-2.64-6.31
							C322.76,78.08,319.94,79.26,318.92,81.73z"/>
					</g>
				</g>
				<path class="st0" d="M343.96,161.03l1.4-0.02c0,0.03,0,0.05,0,0.08c0.04,3.83,3.2,6.9,7.02,6.86c3.83-0.05,6.91-3.2,6.86-7.02
					c-0.02-1.95-0.89-3.83-2.35-5.12c-0.73-0.64-1.58-1.13-2.5-1.42c-0.46-0.15-0.94-0.24-1.42-0.29c-0.32-0.03-0.92,0.11-1.18-0.14
					c-0.08-0.08-0.12-0.22-0.14-0.37c-0.01-0.05-0.02-0.11-0.02-0.17c-0.05-3.95-0.09-7.9-0.14-11.86c-0.01-0.9,1.39-0.92,1.4-0.02
					c0.05,3.72,0.09,7.44,0.13,11.16c4.22,0.36,7.57,3.89,7.63,8.21c0.06,4.6-3.65,8.39-8.25,8.45c-4.6,0.06-8.39-3.64-8.45-8.25
					C343.96,161.08,343.96,161.06,343.96,161.03z"/>
				<g>
					<g>
						<path class="st0" d="M346.39,134.5c-1.54,2.84-0.48,6.39,2.36,7.93c2.84,1.54,6.39,0.48,7.93-2.36
							c1.54-2.84,0.48-6.39-2.36-7.93C351.48,130.6,347.93,131.66,346.39,134.5z"/>
						<path class="st5" d="M348.08,135.41c-1.03,1.91-0.32,4.29,1.58,5.33c1.91,1.03,4.3,0.32,5.33-1.58
							c1.03-1.91,0.33-4.29-1.58-5.33C351.5,132.79,349.11,133.5,348.08,135.41z"/>
					</g>
				</g>
				<g>
					<path class="st0" d="M169.11,86.77c-0.2-0.66-0.57-1.25-1.05-1.74l0.13-0.17l0.25-0.33L330.01,67.4l21.21,30.89l-1.54,1.06
						l-20.57-29.97L169.45,86.3L169.11,86.77z"/>
				</g>
				<g>
					<g>
						<path class="st0" d="M165.79,81.61c-1.25,2.31-0.39,5.2,1.92,6.45c2.31,1.25,5.2,0.39,6.45-1.92c1.25-2.31,0.39-5.2-1.92-6.45
							C169.93,78.44,167.04,79.3,165.79,81.61z"/>
						<path class="st5" d="M166.46,81.97c-1.05,1.94-0.33,4.36,1.61,5.41c1.94,1.05,4.36,0.33,5.41-1.61
							c1.05-1.94,0.33-4.36-1.61-5.41C169.94,79.32,167.51,80.04,166.46,81.97z"/>
						<path class="st0" d="M167.51,82.54c-0.74,1.36-0.23,3.07,1.13,3.81c1.37,0.74,3.07,0.23,3.81-1.13
							c0.74-1.36,0.23-3.07-1.13-3.81C169.95,80.67,168.24,81.18,167.51,82.54z"/>
					</g>
				</g>
				<g>
					<g>
						<path class="st0" d="M324.82,67.37c-1,2.43,0.16,5.21,2.59,6.21c2.43,1,5.21-0.16,6.21-2.59c1-2.43-0.16-5.21-2.59-6.21
							C328.6,63.78,325.82,64.94,324.82,67.37z"/>
						<path class="st5" d="M325.53,67.66c-0.84,2.04,0.14,4.37,2.17,5.21c2.04,0.84,4.37-0.14,5.21-2.18
							c0.84-2.04-0.14-4.37-2.17-5.21C328.7,64.65,326.37,65.63,325.53,67.66z"/>
						<path class="st0" d="M326.63,68.12c-0.59,1.43,0.1,3.08,1.53,3.67c1.43,0.59,3.07-0.1,3.67-1.53
							c0.59-1.44-0.09-3.08-1.53-3.67C328.86,65.99,327.22,66.68,326.63,68.12z"/>
					</g>
				</g>
				<g>
					<g>
						<path class="st0" d="M347.77,97.72c-0.61,1.47,0.1,3.16,1.57,3.77c1.47,0.61,3.16-0.1,3.77-1.57c0.6-1.47-0.1-3.16-1.57-3.77
							C350.06,95.54,348.38,96.25,347.77,97.72z"/>
						<path class="st0" d="M348.2,97.9c-0.51,1.24,0.08,2.65,1.32,3.16c1.24,0.51,2.65-0.08,3.16-1.32
							c0.51-1.24-0.08-2.65-1.32-3.16C350.12,96.07,348.71,96.66,348.2,97.9z"/>
						<path class="st5" d="M348.86,98.17c-0.36,0.87,0.06,1.87,0.93,2.22c0.87,0.36,1.87-0.06,2.22-0.93
							c0.36-0.87-0.06-1.87-0.93-2.23C350.22,96.88,349.22,97.3,348.86,98.17z"/>
					</g>
				</g>
			</g>
		</g>
		<g>
			<g>
				<rect x="166.96" y="189.77" class="st1" width="53.68" height="119.26"/>
				<g>
					<path class="st1" d="M179.6,281.41c0,1.32-1.31,2.39-2.93,2.39l0,0c-1.62,0-2.93-1.07-2.93-2.39v-79.86
						c0-1.32,1.31-2.39,2.93-2.39l0,0c1.62,0,2.93,1.07,2.93,2.39V281.41z"/>
					<path class="st1" d="M189.95,281.41c0,1.32-1.31,2.39-2.93,2.39l0,0c-1.62,0-2.93-1.07-2.93-2.39v-79.86
						c0-1.32,1.31-2.39,2.93-2.39l0,0c1.62,0,2.93,1.07,2.93,2.39V281.41z"/>
					<path class="st1" d="M200.3,281.41c0,1.32-1.31,2.39-2.93,2.39l0,0c-1.62,0-2.93-1.07-2.93-2.39v-79.86
						c0-1.32,1.31-2.39,2.93-2.39l0,0c1.62,0,2.93,1.07,2.93,2.39V281.41z"/>
					<path class="st1" d="M210.64,281.41c0,1.32-1.31,2.39-2.93,2.39l0,0c-1.62,0-2.93-1.07-2.93-2.39v-79.86
						c0-1.32,1.31-2.39,2.93-2.39l0,0c1.62,0,2.93,1.07,2.93,2.39V281.41z"/>
				</g>
			</g>
			<g>
				<rect x="166.96" y="189.77" class="st0" width="53.68" height="119.26"/>
				<g>
					<path class="st6" d="M179.6,281.41c0,1.32-1.31,2.39-2.93,2.39l0,0c-1.62,0-2.93-1.07-2.93-2.39v-79.86
						c0-1.32,1.31-2.39,2.93-2.39l0,0c1.62,0,2.93,1.07,2.93,2.39V281.41z"/>
					<path class="st6" d="M189.95,281.41c0,1.32-1.31,2.39-2.93,2.39l0,0c-1.62,0-2.93-1.07-2.93-2.39v-79.86
						c0-1.32,1.31-2.39,2.93-2.39l0,0c1.62,0,2.93,1.07,2.93,2.39V281.41z"/>
					<path class="st6" d="M200.3,281.41c0,1.32-1.31,2.39-2.93,2.39l0,0c-1.62,0-2.93-1.07-2.93-2.39v-79.86
						c0-1.32,1.31-2.39,2.93-2.39l0,0c1.62,0,2.93,1.07,2.93,2.39V281.41z"/>
					<path class="st6" d="M210.64,281.41c0,1.32-1.31,2.39-2.93,2.39l0,0c-1.62,0-2.93-1.07-2.93-2.39v-79.86
						c0-1.32,1.31-2.39,2.93-2.39l0,0c1.62,0,2.93,1.07,2.93,2.39V281.41z"/>
				</g>
			</g>
		</g>
		<path class="st3" d="M429.38,344.6c-35.21-27.92-103.6-46.86-182.2-46.86S100.2,316.68,64.99,344.6
			c48.83-18.33,112.53-29.42,182.2-29.42S380.55,326.27,429.38,344.6z"/>
	</g>
</g>
<g id="TEXTS">
	<g>
		<text transform="matrix(1 0 0 1 55.8409 389.3791)" class="st2 st7 st8">SAVYLLAH</text>
	</g>
</g>
</svg>
