<?xml version="1.0" encoding="utf-8"?>
<!-- Generator: Adobe Illustrator 26.1.0, SVG Export Plug-In . SVG Version: 6.00 Build 0)  -->
<svg version="1.1" xmlns="http://www.w3.org/2000/svg" xmlns:xlink="http://www.w3.org/1999/xlink" x="0px" y="0px"
	 viewBox="0 0 500 500" style="enable-background:new 0 0 500 500;" xml:space="preserve">
<style type="text/css">
	.st0{fill:#1D365C;}
	.st1{fill:#FFFFFF;}
	.st2{fill:#FF5F13;}
	.st3{fill:#E07019;}
	.st4{opacity:0.5;fill:#1D365C;}
	.st5{fill:#E1FAFD;}
	.st6{fill:#F6F5F1;}
	.st7{font-family:'Poppins-Black';}
	.st8{font-size:72px;}
	.st9{font-family:'Poppins-SemiBoldItalic';}
	.st10{font-size:27px;}
</style>
<g id="OBJECTS">
	<g>
		<g>
			<rect x="280.44" y="143.63" class="st0" width="58.85" height="121.36"/>
			<rect x="287.29" y="133.53" class="st0" width="45.59" height="12.18"/>
			<rect x="280.63" y="130.26" class="st0" width="59.27" height="6.6"/>
			<g>
				<rect x="291.18" y="150.06" class="st1" width="4.06" height="98"/>
				<rect x="301.74" y="150.06" class="st1" width="4.06" height="98"/>
				<rect x="313.91" y="150.06" class="st1" width="3.25" height="98"/>
				<rect x="324.47" y="150.06" class="st1" width="3.25" height="98"/>
			</g>
		</g>
		<g>
			<polygon class="st2" points="280.79,264.75 221.52,264.75 221.52,142.07 280.79,123.28 			"/>
			<g>
				<path class="st1" d="M237.92,163.47v-14.14c0-1.45-1.57-2.63-3.5-2.63c-1.93,0-3.5,1.18-3.5,2.63v14.14H237.92z"/>
				<path class="st1" d="M254.57,163.47v-14.14c0-1.45-1.57-2.63-3.5-2.63c-1.93,0-3.5,1.18-3.5,2.63v14.14H254.57z"/>
				<path class="st1" d="M271.23,163.47v-14.14c0-1.45-1.57-2.63-3.5-2.63c-1.93,0-3.5,1.18-3.5,2.63v14.14H271.23z"/>
				<path class="st1" d="M237.92,191.15v-14.14c0-1.45-1.57-2.63-3.5-2.63c-1.93,0-3.5,1.18-3.5,2.63v14.14H237.92z"/>
				<path class="st1" d="M254.57,191.15v-14.14c0-1.45-1.57-2.63-3.5-2.63c-1.93,0-3.5,1.18-3.5,2.63v14.14H254.57z"/>
				<path class="st1" d="M271.23,191.15v-14.14c0-1.45-1.57-2.63-3.5-2.63c-1.93,0-3.5,1.18-3.5,2.63v14.14H271.23z"/>
				<path class="st1" d="M237.92,218.83v-14.14c0-1.45-1.57-2.63-3.5-2.63c-1.93,0-3.5,1.18-3.5,2.63v14.14H237.92z"/>
				<path class="st1" d="M254.57,218.83v-14.14c0-1.45-1.57-2.63-3.5-2.63c-1.93,0-3.5,1.18-3.5,2.63v14.14H254.57z"/>
				<path class="st1" d="M271.23,218.83v-14.14c0-1.45-1.57-2.63-3.5-2.63c-1.93,0-3.5,1.18-3.5,2.63v14.14H271.23z"/>
				<path class="st1" d="M237.92,246.51v-14.14c0-1.45-1.57-2.63-3.5-2.63c-1.93,0-3.5,1.18-3.5,2.63v14.14H237.92z"/>
				<path class="st1" d="M254.57,246.51v-14.14c0-1.45-1.57-2.63-3.5-2.63c-1.93,0-3.5,1.18-3.5,2.63v14.14H254.57z"/>
				<path class="st1" d="M271.23,246.51v-14.14c0-1.45-1.57-2.63-3.5-2.63c-1.93,0-3.5,1.18-3.5,2.63v14.14H271.23z"/>
			</g>
		</g>
		<g>
			<g>
				<g>
					<path class="st3" d="M173.61,263.62h2.53v-3.55h15.62l-4.42,3.55h4.6l3.54-2.85v2.85h5.61V83.24h-0.35v-2.45h-30.13v2.45h-0.09
						v178.33C171.61,262.18,172.65,262.87,173.61,263.62z M195.48,256.89l-17.96-14.43h17.96V256.89z M195.48,239.31h-17.01
						l17.01-13.67V239.31z M195.48,221.7h-0.07l-18.01-14.48h18.08V221.7z M195.48,204.09h-16.89l16.89-13.58V204.09z
						 M195.48,186.47h-0.18L177.28,172h18.19V186.47z M195.48,168.86H178.7l16.78-13.49V168.86z M195.48,151.24h-0.3l-18.01-14.48
						h18.3V151.24z M195.48,133.63h-16.67l16.67-13.4V133.63z M195.48,116.01h-0.41l-18-14.48h18.41V116.01z M195.48,98.4h-16.56
						l16.56-13.32V98.4z M176.13,83.92h16.19l-16.19,13.01V83.92z M176.13,104.49l14.34,11.53h-14.34V104.49z M176.13,119.15h16.08
						l-16.08,12.93V119.15z M176.13,139.63l14.45,11.61h-14.45V139.63z M176.13,154.38h15.97l-15.97,12.84V154.38z M176.13,174.77
						l14.56,11.7h-14.56V174.77z M176.13,189.61h15.86l-15.86,12.75V189.61z M176.13,209.9l14.68,11.8h-14.68V209.9z M176.13,224.84
						h15.74l-15.74,12.65V224.84z M176.13,245.03l14.8,11.89h-14.8V245.03z"/>
				</g>
				<g>
					<path class="st0" d="M173.61,263.62h2.53v-3.55h15.62l-4.42,3.55h4.6l3.54-2.85v2.85h5.61V83.24h-0.35v-2.45h-30.13v2.45h-0.09
						v178.33C171.61,262.18,172.65,262.87,173.61,263.62z M195.48,256.89l-17.96-14.43h17.96V256.89z M195.48,239.31h-17.01
						l17.01-13.67V239.31z M195.48,221.7h-0.07l-18.01-14.48h18.08V221.7z M195.48,204.09h-16.89l16.89-13.58V204.09z
						 M195.48,186.47h-0.18L177.28,172h18.19V186.47z M195.48,168.86H178.7l16.78-13.49V168.86z M195.48,151.24h-0.3l-18.01-14.48
						h18.3V151.24z M195.48,133.63h-16.67l16.67-13.4V133.63z M195.48,116.01h-0.41l-18-14.48h18.41V116.01z M195.48,98.4h-16.56
						l16.56-13.32V98.4z M176.13,83.92h16.19l-16.19,13.01V83.92z M176.13,104.49l14.34,11.53h-14.34V104.49z M176.13,119.15h16.08
						l-16.08,12.93V119.15z M176.13,139.63l14.45,11.61h-14.45V139.63z M176.13,154.38h15.97l-15.97,12.84V154.38z M176.13,174.77
						l14.56,11.7h-14.56V174.77z M176.13,189.61h15.86l-15.86,12.75V189.61z M176.13,209.9l14.68,11.8h-14.68V209.9z M176.13,224.84
						h15.74l-15.74,12.65V224.84z M176.13,245.03l14.8,11.89h-14.8V245.03z"/>
				</g>
			</g>
			<g>
				<g>
					<path class="st0" d="M175.18,82.17c1.9,2.77,3.79,5.54,5.69,8.31c0.44,0.64-0.76,1.24-1.2,0.59c-1.9-2.77-3.79-5.54-5.69-8.31
						C173.54,82.12,174.74,81.53,175.18,82.17L175.18,82.17z"/>
				</g>
				<g>
					<path class="st0" d="M333.38,71.61c-1.56,2.91-3.12,5.81-4.68,8.72c-0.36,0.67-1.67,0.26-1.31-0.42
						c1.56-2.91,3.12-5.81,4.68-8.72C332.43,70.52,333.75,70.93,333.38,71.61L333.38,71.61z"/>
				</g>
				<g>
					<path class="st0" d="M354.27,94.84c-1.56,2.91-3.12,5.81-4.68,8.72c-0.36,0.67-1.67,0.26-1.31-0.42
						c1.56-2.91,3.12-5.81,4.67-8.72C353.33,93.75,354.64,94.16,354.27,94.84L354.27,94.84z"/>
				</g>
				<g>
					<g>
						<path class="st0" d="M238.23,94.89l16.12-1.35l0.18,0.14l0.14-0.16l21.47-1.79l0.28,0.21l0.21-0.25l21.39-1.79l0.01,0.01
							l0.01-0.01l25.24-2.11l6.87-12.39l-25.2,1.84l-0.12-0.1l-0.08,0.11l-19.61,1.43l0,0l0,0l-21.72,1.59l-0.06-0.04l-0.04,0.05
							l-26.73,1.96L238.23,94.89z M261.64,82.32l-7.44,9.03l-10.18-7.74L261.64,82.32z M283.45,80.72l-7.38,8.91l-10.3-7.61
							L283.45,80.72z M303.33,79.26l-5.8,8.27l-9.96-7.11L303.33,79.26z M320.29,78.02l-5.46,7.4l-7.77-6.43L320.29,78.02z
							 M321.69,86.01l-5.45,0.45l6.01-8.15l-0.76-0.37l4.87-0.36L321.69,86.01z M299.45,87.86l5.77-8.22l8.49,7.03L299.45,87.86z
							 M278.32,89.63l7.18-8.66l10.11,7.21L278.32,89.63z M256.36,91.47l7.35-8.92l10.1,7.46L256.36,91.47z M240.31,92.81
							l-1.15-8.85l2.66-0.19l-0.16,0.14l10.42,7.92L240.31,92.81z"/>
					</g>
					<g>
						<path class="st0" d="M239.95,90.58l-1.17,1.67l-10.31-7.36l10.63-0.78l-0.26-1.96l-12.88,0.94l0,0l-22.47,1.64l-0.06-0.04
							l-0.04,0.05l-27.66,2.02l1.7,13.09l16.67-1.39l0.19,0.14l0.14-0.17l22.21-1.86l0.29,0.21l0.21-0.26l22.13-1.85l0.01,0.01
							l0.01-0.01l1.18-0.1L239.95,90.58z M179.58,97.71l-1.19-9.15l2.75-0.2l-0.16,0.14l10.78,8.19L179.58,97.71z M193.95,96.2
							l-10.54-8.01l18.24-1.33L193.95,96.2z M196.18,96.32l7.6-9.23l10.45,7.72L196.18,96.32z M216.58,94.41l-10.66-7.87l18.29-1.34
							L216.58,94.41z M218.91,94.42l7.43-8.96l10.46,7.46L218.91,94.42z"/>
					</g>
				</g>
				<g>
					<polygon class="st0" points="329.71,75.26 351.11,99.82 347.67,106.62 323.63,87.08 329.56,75.35 					"/>
					<g>
						<polygon class="st4" points="349.15,103.69 349.16,103.69 349.15,103.69 						"/>
					</g>
				</g>
				<polygon class="st0" points="352.87,124.39 355.25,123.85 348.51,104.12 346.13,104.66 				"/>
				<g>
					<g>
						<path class="st0" d="M169.51,89.89c-2.15,3.23-0.68,7.27,3.3,9.02c3.98,1.75,8.95,0.55,11.1-2.68
							c2.15-3.23,0.68-7.27-3.3-9.02C176.64,85.46,171.67,86.66,169.51,89.89z"/>
						<path class="st5" d="M170.67,90.4c-1.81,2.71-0.57,6.1,2.77,7.57c3.34,1.47,7.51,0.46,9.32-2.25c1.81-2.71,0.57-6.1-2.77-7.57
							C176.65,86.68,172.48,87.69,170.67,90.4z"/>
						<path class="st0" d="M172.46,91.19c-1.27,1.91-0.4,4.29,1.95,5.33c2.35,1.03,5.28,0.33,6.56-1.58c1.27-1.91,0.4-4.3-1.95-5.33
							C176.67,88.57,173.73,89.28,172.46,91.19z"/>
					</g>
				</g>
				<g>
					<g>
						<path class="st0" d="M319.79,79.21c-1.72,3.4,0.28,7.29,4.46,8.69c4.18,1.4,8.97-0.23,10.69-3.63
							c1.72-3.4-0.28-7.29-4.46-8.69C326.29,74.19,321.51,75.81,319.79,79.21z"/>
						<path class="st5" d="M321.01,79.62c-1.44,2.85,0.23,6.12,3.75,7.29c3.51,1.17,7.52-0.19,8.97-3.04
							c1.44-2.85-0.23-6.12-3.74-7.29C326.47,75.4,322.45,76.76,321.01,79.62z"/>
						<path class="st0" d="M322.89,80.25c-1.02,2.01,0.16,4.3,2.63,5.13c2.47,0.82,5.3-0.13,6.31-2.14c1.02-2.01-0.17-4.3-2.64-5.13
							C326.73,77.28,323.91,78.24,322.89,80.25z"/>
					</g>
				</g>
				<path class="st0" d="M347.93,144.7l1.4-0.01c0,0.02,0,0.04,0,0.06c0.04,3.11,3.2,5.61,7.02,5.57c3.83-0.04,6.91-2.6,6.86-5.71
					c-0.02-1.59-0.89-3.11-2.35-4.16c-0.73-0.52-1.58-0.92-2.5-1.15c-0.46-0.12-0.94-0.2-1.42-0.23c-0.32-0.02-0.92,0.09-1.18-0.11
					c-0.08-0.07-0.12-0.18-0.14-0.3c-0.01-0.04-0.02-0.09-0.02-0.14c-0.05-3.21-0.09-6.42-0.14-9.64c-0.01-0.74,1.39-0.75,1.4-0.01
					c0.05,3.02,0.09,6.05,0.13,9.07c4.22,0.29,7.57,3.16,7.63,6.68c0.06,3.74-3.65,6.82-8.25,6.86c-4.6,0.04-8.39-2.96-8.45-6.7
					C347.93,144.75,347.93,144.72,347.93,144.7z"/>
				<g>
					<g>
						<path class="st0" d="M350.36,123.14c-1.54,2.31-0.48,5.19,2.36,6.45c2.84,1.25,6.39,0.39,7.93-1.92
							c1.54-2.31,0.48-5.2-2.36-6.45C355.45,119.97,351.9,120.83,350.36,123.14z"/>
						<path class="st5" d="M352.05,123.88c-1.03,1.55-0.32,3.49,1.58,4.33c1.91,0.84,4.3,0.26,5.33-1.29
							c1.03-1.55,0.33-3.49-1.58-4.33C355.47,121.75,353.08,122.33,352.05,123.88z"/>
					</g>
				</g>
				<g>
					<path class="st0" d="M173.08,84.34c-0.2-0.54-0.57-1.01-1.05-1.41l0.13-0.14l0.25-0.27L333.98,68.6l21.21,25.11l-1.54,0.86
						l-20.57-24.36L173.42,83.96L173.08,84.34z"/>
				</g>
				<g>
					<g>
						<path class="st0" d="M169.76,80.15c-1.25,1.88-0.39,4.23,1.92,5.24c2.31,1.02,5.2,0.32,6.45-1.56
							c1.25-1.88,0.39-4.22-1.92-5.24C173.9,77.57,171.01,78.27,169.76,80.15z"/>
						<path class="st5" d="M170.43,80.45c-1.05,1.58-0.33,3.55,1.61,4.4c1.94,0.85,4.36,0.27,5.41-1.31
							c1.05-1.57,0.33-3.54-1.61-4.4C173.91,78.28,171.48,78.87,170.43,80.45z"/>
						<path class="st0" d="M171.47,80.9c-0.74,1.11-0.23,2.5,1.13,3.1c1.37,0.6,3.07,0.19,3.81-0.92c0.74-1.11,0.23-2.49-1.13-3.1
							C173.92,79.38,172.21,79.8,171.47,80.9z"/>
					</g>
				</g>
				<g>
					<g>
						<path class="st0" d="M328.79,68.58c-1,1.97,0.16,4.23,2.59,5.05c2.43,0.81,5.21-0.13,6.21-2.11c1-1.97-0.16-4.24-2.59-5.05
							C332.57,65.66,329.79,66.6,328.79,68.58z"/>
						<path class="st5" d="M329.5,68.81c-0.84,1.66,0.14,3.55,2.17,4.24c2.04,0.68,4.37-0.11,5.21-1.77
							c0.84-1.66-0.14-3.55-2.17-4.24C332.67,66.37,330.34,67.16,329.5,68.81z"/>
						<path class="st0" d="M330.6,69.18c-0.59,1.17,0.1,2.5,1.53,2.98c1.43,0.48,3.07-0.08,3.67-1.24c0.59-1.17-0.09-2.5-1.53-2.98
							C332.83,67.46,331.19,68.01,330.6,69.18z"/>
					</g>
				</g>
				<g>
					<g>
						<path class="st0" d="M351.74,93.24c-0.61,1.2,0.1,2.57,1.57,3.06c1.47,0.49,3.16-0.08,3.77-1.28c0.6-1.2-0.1-2.57-1.57-3.06
							C354.03,91.47,352.35,92.05,351.74,93.24z"/>
						<path class="st0" d="M352.17,93.39c-0.51,1.01,0.08,2.16,1.32,2.57c1.24,0.41,2.65-0.07,3.16-1.07
							c0.51-1.01-0.08-2.16-1.32-2.57C354.09,91.9,352.68,92.38,352.17,93.39z"/>
						<path class="st5" d="M352.83,93.61c-0.36,0.71,0.06,1.52,0.93,1.81c0.87,0.29,1.87-0.05,2.22-0.75
							c0.36-0.71-0.06-1.52-0.93-1.81C354.19,92.56,353.19,92.9,352.83,93.61z"/>
					</g>
				</g>
			</g>
		</g>
		<g>
			<g>
				<rect x="170.93" y="168.06" class="st1" width="53.68" height="96.93"/>
				<g>
					<path class="st1" d="M183.57,242.54c0,1.07-1.31,1.94-2.93,1.94l0,0c-1.62,0-2.93-0.87-2.93-1.94v-64.91
						c0-1.07,1.31-1.94,2.93-1.94l0,0c1.62,0,2.93,0.87,2.93,1.94V242.54z"/>
					<path class="st1" d="M193.92,242.54c0,1.07-1.31,1.94-2.93,1.94l0,0c-1.62,0-2.93-0.87-2.93-1.94v-64.91
						c0-1.07,1.31-1.94,2.93-1.94l0,0c1.62,0,2.93,0.87,2.93,1.94V242.54z"/>
					<path class="st1" d="M204.26,242.54c0,1.07-1.31,1.94-2.93,1.94l0,0c-1.62,0-2.93-0.87-2.93-1.94v-64.91
						c0-1.07,1.31-1.94,2.93-1.94l0,0c1.62,0,2.93,0.87,2.93,1.94V242.54z"/>
					<path class="st1" d="M214.61,242.54c0,1.07-1.31,1.94-2.93,1.94l0,0c-1.62,0-2.93-0.87-2.93-1.94v-64.91
						c0-1.07,1.31-1.94,2.93-1.94l0,0c1.62,0,2.93,0.87,2.93,1.94V242.54z"/>
				</g>
			</g>
			<g>
				<rect x="170.93" y="168.06" class="st0" width="53.68" height="96.93"/>
				<g>
					<path class="st6" d="M183.57,242.54c0,1.07-1.31,1.94-2.93,1.94l0,0c-1.62,0-2.93-0.87-2.93-1.94v-64.91
						c0-1.07,1.31-1.94,2.93-1.94l0,0c1.62,0,2.93,0.87,2.93,1.94V242.54z"/>
					<path class="st6" d="M193.92,242.54c0,1.07-1.31,1.94-2.93,1.94l0,0c-1.62,0-2.93-0.87-2.93-1.94v-64.91
						c0-1.07,1.31-1.94,2.93-1.94l0,0c1.62,0,2.93,0.87,2.93,1.94V242.54z"/>
					<path class="st6" d="M204.26,242.54c0,1.07-1.31,1.94-2.93,1.94l0,0c-1.62,0-2.93-0.87-2.93-1.94v-64.91
						c0-1.07,1.31-1.94,2.93-1.94l0,0c1.62,0,2.93,0.87,2.93,1.94V242.54z"/>
					<path class="st6" d="M214.61,242.54c0,1.07-1.31,1.94-2.93,1.94l0,0c-1.62,0-2.93-0.87-2.93-1.94v-64.91
						c0-1.07,1.31-1.94,2.93-1.94l0,0c1.62,0,2.93,0.87,2.93,1.94V242.54z"/>
				</g>
			</g>
		</g>
		<path class="st2" d="M433.35,293.91c-35.21-22.7-103.6-38.09-182.2-38.09s-146.99,15.4-182.2,38.09
			c48.83-14.9,112.53-23.91,182.2-23.91S384.52,279.01,433.35,293.91z"/>
	</g>
</g>
<g id="TEXTS">
	<g>
		<text transform="matrix(1 0 0 1 49.1214 341.1097)" class="st2 st7 st8">SAVYLLAH</text>
		<text transform="matrix(1 0 0 1 15.1851 365.8398)"><tspan x="0" y="0" class="st3 st9 st10">CONSTRUCTION &amp; ARCHITECTURAL </tspan><tspan x="167.83" y="32.4" class="st3 st9 st10">COMPANY</tspan></text>
	</g>
</g>
</svg>
